<mxfile host="app.diagrams.net" modified="2023-03-26T17:55:08.733Z" agent="Mozilla/5.0 (Macintosh; Intel Mac OS X 10_15_7) AppleWebKit/537.36 (KHTML, like Gecko) Chrome/111.0.0.0 Safari/537.36" etag="Rsd18V8CWW_b7EbmFISM" version="21.1.1" type="device">
  <diagram name="Page-1" id="ewuzjmNUZ0Q40SlkVV-e">
    <mxGraphModel dx="1160" dy="644" grid="1" gridSize="10" guides="1" tooltips="1" connect="1" arrows="1" fold="1" page="1" pageScale="1" pageWidth="850" pageHeight="1100" math="0" shadow="0">
      <root>
        <mxCell id="0" />
        <mxCell id="1" parent="0" />
        <mxCell id="Zsn_RkaM_dlEEFuav1fD-1" style="edgeStyle=orthogonalEdgeStyle;rounded=0;orthogonalLoop=1;jettySize=auto;html=1;exitX=0.5;exitY=1;exitDx=0;exitDy=0;startArrow=classic;startFill=1;endArrow=none;endFill=0;" edge="1" parent="1" source="Zsn_RkaM_dlEEFuav1fD-4">
          <mxGeometry relative="1" as="geometry">
            <mxPoint x="100" y="310" as="targetPoint" />
          </mxGeometry>
        </mxCell>
        <mxCell id="Zsn_RkaM_dlEEFuav1fD-2" value="&lt;font style=&quot;font-size: 13px;&quot;&gt;X&lt;sub&gt;5&lt;/sub&gt;&lt;/font&gt;" style="ellipse;whiteSpace=wrap;html=1;aspect=fixed;direction=east;" vertex="1" parent="1">
          <mxGeometry x="200" y="200" width="40" height="40" as="geometry" />
        </mxCell>
        <mxCell id="Zsn_RkaM_dlEEFuav1fD-3" value="" style="endArrow=classic;html=1;rounded=0;exitX=0.5;exitY=1;exitDx=0;exitDy=0;entryX=0.5;entryY=0;entryDx=0;entryDy=0;" edge="1" parent="1" source="Zsn_RkaM_dlEEFuav1fD-2" target="Zsn_RkaM_dlEEFuav1fD-6">
          <mxGeometry width="50" height="50" relative="1" as="geometry">
            <mxPoint x="250" y="410" as="sourcePoint" />
            <mxPoint x="300" y="360" as="targetPoint" />
          </mxGeometry>
        </mxCell>
        <mxCell id="Zsn_RkaM_dlEEFuav1fD-4" value="&lt;font style=&quot;font-size: 13px;&quot;&gt;X&lt;sub&gt;1&lt;/sub&gt;&lt;/font&gt;" style="ellipse;whiteSpace=wrap;html=1;aspect=fixed;direction=east;" vertex="1" parent="1">
          <mxGeometry x="80" y="200" width="40" height="40" as="geometry" />
        </mxCell>
        <mxCell id="Zsn_RkaM_dlEEFuav1fD-5" value="&lt;font style=&quot;font-size: 13px;&quot;&gt;X&lt;sub&gt;2&lt;/sub&gt;&lt;/font&gt;" style="ellipse;whiteSpace=wrap;html=1;aspect=fixed;direction=east;" vertex="1" parent="1">
          <mxGeometry x="80" y="310" width="40" height="40" as="geometry" />
        </mxCell>
        <mxCell id="Zsn_RkaM_dlEEFuav1fD-6" value="&lt;font style=&quot;font-size: 13px;&quot;&gt;X&lt;sub&gt;4&lt;/sub&gt;&lt;/font&gt;" style="ellipse;whiteSpace=wrap;html=1;aspect=fixed;direction=east;" vertex="1" parent="1">
          <mxGeometry x="200" y="310" width="40" height="40" as="geometry" />
        </mxCell>
        <mxCell id="Zsn_RkaM_dlEEFuav1fD-7" value="&lt;font style=&quot;font-size: 13px;&quot;&gt;X&lt;sub&gt;3&lt;/sub&gt;&lt;/font&gt;" style="ellipse;whiteSpace=wrap;html=1;aspect=fixed;direction=east;" vertex="1" parent="1">
          <mxGeometry x="140" y="390" width="40" height="40" as="geometry" />
        </mxCell>
        <mxCell id="Zsn_RkaM_dlEEFuav1fD-8" value="" style="endArrow=none;html=1;rounded=0;exitX=1;exitY=0;exitDx=0;exitDy=0;entryX=0;entryY=1;entryDx=0;entryDy=0;endFill=0;" edge="1" parent="1" source="Zsn_RkaM_dlEEFuav1fD-43" target="Zsn_RkaM_dlEEFuav1fD-6">
          <mxGeometry width="50" height="50" relative="1" as="geometry">
            <mxPoint x="240" y="410" as="sourcePoint" />
            <mxPoint x="290" y="360" as="targetPoint" />
          </mxGeometry>
        </mxCell>
        <mxCell id="Zsn_RkaM_dlEEFuav1fD-9" value="" style="endArrow=none;html=1;rounded=0;endFill=0;entryX=0;entryY=0;entryDx=0;entryDy=0;exitX=1;exitY=1;exitDx=0;exitDy=0;" edge="1" parent="1" source="Zsn_RkaM_dlEEFuav1fD-5" target="Zsn_RkaM_dlEEFuav1fD-7">
          <mxGeometry width="50" height="50" relative="1" as="geometry">
            <mxPoint x="110" y="340" as="sourcePoint" />
            <mxPoint x="290" y="360" as="targetPoint" />
          </mxGeometry>
        </mxCell>
        <mxCell id="Zsn_RkaM_dlEEFuav1fD-10" value="" style="endArrow=none;html=1;rounded=0;exitX=0;exitY=0.5;exitDx=0;exitDy=0;entryX=1;entryY=0.5;entryDx=0;entryDy=0;endFill=0;startArrow=classic;startFill=1;" edge="1" parent="1" source="Zsn_RkaM_dlEEFuav1fD-6" target="Zsn_RkaM_dlEEFuav1fD-5">
          <mxGeometry width="50" height="50" relative="1" as="geometry">
            <mxPoint x="250" y="410" as="sourcePoint" />
            <mxPoint x="300" y="360" as="targetPoint" />
          </mxGeometry>
        </mxCell>
        <mxCell id="Zsn_RkaM_dlEEFuav1fD-11" value="" style="endArrow=classic;html=1;rounded=0;exitX=0;exitY=0.5;exitDx=0;exitDy=0;entryX=1;entryY=0.5;entryDx=0;entryDy=0;" edge="1" parent="1" source="Zsn_RkaM_dlEEFuav1fD-2" target="Zsn_RkaM_dlEEFuav1fD-4">
          <mxGeometry width="50" height="50" relative="1" as="geometry">
            <mxPoint x="230" y="250" as="sourcePoint" />
            <mxPoint x="230" y="320" as="targetPoint" />
          </mxGeometry>
        </mxCell>
        <mxCell id="Zsn_RkaM_dlEEFuav1fD-12" value="" style="endArrow=none;startArrow=none;html=1;curved=1;entryX=0;entryY=1;entryDx=0;entryDy=0;exitX=0;exitY=0.5;exitDx=0;exitDy=0;startFill=0;endFill=0;" edge="1" parent="1" source="Zsn_RkaM_dlEEFuav1fD-7" target="Zsn_RkaM_dlEEFuav1fD-4">
          <mxGeometry width="50" height="50" relative="1" as="geometry">
            <mxPoint x="200" y="520" as="sourcePoint" />
            <mxPoint x="250" y="470" as="targetPoint" />
            <Array as="points">
              <mxPoint x="20" y="360" />
            </Array>
          </mxGeometry>
        </mxCell>
        <mxCell id="Zsn_RkaM_dlEEFuav1fD-41" value="&lt;b&gt;&lt;font face=&quot;Times New Roman&quot; style=&quot;font-size: 19px;&quot;&gt;(a)&lt;/font&gt;&lt;/b&gt;" style="text;html=1;strokeColor=none;fillColor=none;align=center;verticalAlign=middle;whiteSpace=wrap;rounded=0;fontSize=17;" vertex="1" parent="1">
          <mxGeometry x="70" y="158" width="60" height="30" as="geometry" />
        </mxCell>
        <mxCell id="Zsn_RkaM_dlEEFuav1fD-42" value="&lt;b&gt;&lt;font face=&quot;Times New Roman&quot; style=&quot;font-size: 19px;&quot;&gt;(b)&lt;/font&gt;&lt;/b&gt;" style="text;html=1;strokeColor=none;fillColor=none;align=center;verticalAlign=middle;whiteSpace=wrap;rounded=0;fontSize=17;" vertex="1" parent="1">
          <mxGeometry x="300.5" y="158" width="60" height="30" as="geometry" />
        </mxCell>
        <mxCell id="Zsn_RkaM_dlEEFuav1fD-45" value="" style="endArrow=none;html=1;rounded=0;exitX=1;exitY=0;exitDx=0;exitDy=0;entryX=0;entryY=1;entryDx=0;entryDy=0;endFill=0;" edge="1" parent="1" source="Zsn_RkaM_dlEEFuav1fD-7" target="Zsn_RkaM_dlEEFuav1fD-43">
          <mxGeometry width="50" height="50" relative="1" as="geometry">
            <mxPoint x="174" y="396" as="sourcePoint" />
            <mxPoint x="206" y="344" as="targetPoint" />
          </mxGeometry>
        </mxCell>
        <mxCell id="Zsn_RkaM_dlEEFuav1fD-43" value="" style="ellipse;whiteSpace=wrap;html=1;aspect=fixed;" vertex="1" parent="1">
          <mxGeometry x="173" y="390" width="7" height="7" as="geometry" />
        </mxCell>
        <mxCell id="Zsn_RkaM_dlEEFuav1fD-46" value="" style="ellipse;whiteSpace=wrap;html=1;aspect=fixed;" vertex="1" parent="1">
          <mxGeometry x="200" y="343" width="7" height="7" as="geometry" />
        </mxCell>
        <mxCell id="Zsn_RkaM_dlEEFuav1fD-47" value="" style="ellipse;whiteSpace=wrap;html=1;aspect=fixed;" vertex="1" parent="1">
          <mxGeometry x="141" y="389" width="7" height="7" as="geometry" />
        </mxCell>
        <mxCell id="Zsn_RkaM_dlEEFuav1fD-48" value="" style="ellipse;whiteSpace=wrap;html=1;aspect=fixed;" vertex="1" parent="1">
          <mxGeometry x="112" y="344" width="7" height="7" as="geometry" />
        </mxCell>
        <mxCell id="Zsn_RkaM_dlEEFuav1fD-50" value="" style="ellipse;whiteSpace=wrap;html=1;aspect=fixed;" vertex="1" parent="1">
          <mxGeometry x="133" y="404" width="7" height="7" as="geometry" />
        </mxCell>
        <mxCell id="Zsn_RkaM_dlEEFuav1fD-51" value="" style="ellipse;whiteSpace=wrap;html=1;aspect=fixed;" vertex="1" parent="1">
          <mxGeometry x="80" y="233" width="7" height="7" as="geometry" />
        </mxCell>
        <mxCell id="Zsn_RkaM_dlEEFuav1fD-52" style="edgeStyle=orthogonalEdgeStyle;rounded=0;orthogonalLoop=1;jettySize=auto;html=1;exitX=0.5;exitY=1;exitDx=0;exitDy=0;startArrow=none;startFill=0;endArrow=none;endFill=0;" edge="1" parent="1" source="Zsn_RkaM_dlEEFuav1fD-55">
          <mxGeometry relative="1" as="geometry">
            <mxPoint x="360" y="310" as="targetPoint" />
          </mxGeometry>
        </mxCell>
        <mxCell id="Zsn_RkaM_dlEEFuav1fD-53" value="&lt;font style=&quot;font-size: 13px;&quot;&gt;X&lt;sub&gt;5&lt;/sub&gt;&lt;/font&gt;" style="ellipse;whiteSpace=wrap;html=1;aspect=fixed;direction=east;" vertex="1" parent="1">
          <mxGeometry x="460" y="200" width="40" height="40" as="geometry" />
        </mxCell>
        <mxCell id="Zsn_RkaM_dlEEFuav1fD-54" value="" style="endArrow=none;html=1;rounded=0;exitX=0.5;exitY=1;exitDx=0;exitDy=0;entryX=0.5;entryY=0;entryDx=0;entryDy=0;startArrow=none;startFill=0;endFill=0;" edge="1" parent="1" source="Zsn_RkaM_dlEEFuav1fD-53" target="Zsn_RkaM_dlEEFuav1fD-57">
          <mxGeometry width="50" height="50" relative="1" as="geometry">
            <mxPoint x="510" y="410" as="sourcePoint" />
            <mxPoint x="560" y="360" as="targetPoint" />
          </mxGeometry>
        </mxCell>
        <mxCell id="Zsn_RkaM_dlEEFuav1fD-55" value="&lt;font style=&quot;font-size: 13px;&quot;&gt;X&lt;sub&gt;1&lt;/sub&gt;&lt;/font&gt;" style="ellipse;whiteSpace=wrap;html=1;aspect=fixed;direction=east;" vertex="1" parent="1">
          <mxGeometry x="340" y="200" width="40" height="40" as="geometry" />
        </mxCell>
        <mxCell id="Zsn_RkaM_dlEEFuav1fD-56" value="&lt;font style=&quot;font-size: 13px;&quot;&gt;X&lt;sub&gt;2&lt;/sub&gt;&lt;/font&gt;" style="ellipse;whiteSpace=wrap;html=1;aspect=fixed;direction=east;" vertex="1" parent="1">
          <mxGeometry x="340" y="310" width="40" height="40" as="geometry" />
        </mxCell>
        <mxCell id="Zsn_RkaM_dlEEFuav1fD-57" value="&lt;font style=&quot;font-size: 13px;&quot;&gt;X&lt;sub&gt;4&lt;/sub&gt;&lt;/font&gt;" style="ellipse;whiteSpace=wrap;html=1;aspect=fixed;direction=east;" vertex="1" parent="1">
          <mxGeometry x="460" y="310" width="40" height="40" as="geometry" />
        </mxCell>
        <mxCell id="Zsn_RkaM_dlEEFuav1fD-58" value="&lt;font style=&quot;font-size: 13px;&quot;&gt;X&lt;sub&gt;3&lt;/sub&gt;&lt;/font&gt;" style="ellipse;whiteSpace=wrap;html=1;aspect=fixed;direction=east;" vertex="1" parent="1">
          <mxGeometry x="400" y="390" width="40" height="40" as="geometry" />
        </mxCell>
        <mxCell id="Zsn_RkaM_dlEEFuav1fD-59" value="" style="endArrow=none;html=1;rounded=0;exitX=1;exitY=0;exitDx=0;exitDy=0;entryX=0;entryY=1;entryDx=0;entryDy=0;endFill=0;" edge="1" parent="1" source="Zsn_RkaM_dlEEFuav1fD-65" target="Zsn_RkaM_dlEEFuav1fD-57">
          <mxGeometry width="50" height="50" relative="1" as="geometry">
            <mxPoint x="500" y="410" as="sourcePoint" />
            <mxPoint x="550" y="360" as="targetPoint" />
          </mxGeometry>
        </mxCell>
        <mxCell id="Zsn_RkaM_dlEEFuav1fD-60" value="" style="endArrow=none;html=1;rounded=0;endFill=0;entryX=0;entryY=0;entryDx=0;entryDy=0;exitX=1;exitY=1;exitDx=0;exitDy=0;" edge="1" parent="1" source="Zsn_RkaM_dlEEFuav1fD-56" target="Zsn_RkaM_dlEEFuav1fD-58">
          <mxGeometry width="50" height="50" relative="1" as="geometry">
            <mxPoint x="370" y="340" as="sourcePoint" />
            <mxPoint x="550" y="360" as="targetPoint" />
          </mxGeometry>
        </mxCell>
        <mxCell id="Zsn_RkaM_dlEEFuav1fD-61" value="" style="endArrow=none;html=1;rounded=0;exitX=0;exitY=0.5;exitDx=0;exitDy=0;entryX=1;entryY=0.5;entryDx=0;entryDy=0;endFill=0;startArrow=none;startFill=0;" edge="1" parent="1" source="Zsn_RkaM_dlEEFuav1fD-57" target="Zsn_RkaM_dlEEFuav1fD-56">
          <mxGeometry width="50" height="50" relative="1" as="geometry">
            <mxPoint x="510" y="410" as="sourcePoint" />
            <mxPoint x="560" y="360" as="targetPoint" />
          </mxGeometry>
        </mxCell>
        <mxCell id="Zsn_RkaM_dlEEFuav1fD-62" value="" style="endArrow=none;html=1;rounded=0;exitX=0;exitY=0.5;exitDx=0;exitDy=0;entryX=1;entryY=0.5;entryDx=0;entryDy=0;startArrow=none;startFill=0;endFill=0;" edge="1" parent="1" source="Zsn_RkaM_dlEEFuav1fD-80" target="Zsn_RkaM_dlEEFuav1fD-55">
          <mxGeometry width="50" height="50" relative="1" as="geometry">
            <mxPoint x="490" y="250" as="sourcePoint" />
            <mxPoint x="490" y="320" as="targetPoint" />
          </mxGeometry>
        </mxCell>
        <mxCell id="Zsn_RkaM_dlEEFuav1fD-63" value="" style="endArrow=none;startArrow=none;html=1;curved=1;entryX=0;entryY=1;entryDx=0;entryDy=0;exitX=0;exitY=0.5;exitDx=0;exitDy=0;startFill=0;endFill=0;" edge="1" parent="1" source="Zsn_RkaM_dlEEFuav1fD-58" target="Zsn_RkaM_dlEEFuav1fD-55">
          <mxGeometry width="50" height="50" relative="1" as="geometry">
            <mxPoint x="460" y="520" as="sourcePoint" />
            <mxPoint x="510" y="470" as="targetPoint" />
            <Array as="points">
              <mxPoint x="280" y="360" />
            </Array>
          </mxGeometry>
        </mxCell>
        <mxCell id="Zsn_RkaM_dlEEFuav1fD-64" value="" style="endArrow=none;html=1;rounded=0;exitX=1;exitY=0;exitDx=0;exitDy=0;entryX=0;entryY=1;entryDx=0;entryDy=0;endFill=0;" edge="1" parent="1" source="Zsn_RkaM_dlEEFuav1fD-58" target="Zsn_RkaM_dlEEFuav1fD-65">
          <mxGeometry width="50" height="50" relative="1" as="geometry">
            <mxPoint x="434" y="396" as="sourcePoint" />
            <mxPoint x="466" y="344" as="targetPoint" />
          </mxGeometry>
        </mxCell>
        <mxCell id="Zsn_RkaM_dlEEFuav1fD-65" value="" style="ellipse;whiteSpace=wrap;html=1;aspect=fixed;" vertex="1" parent="1">
          <mxGeometry x="433" y="390" width="7" height="7" as="geometry" />
        </mxCell>
        <mxCell id="Zsn_RkaM_dlEEFuav1fD-66" value="" style="ellipse;whiteSpace=wrap;html=1;aspect=fixed;" vertex="1" parent="1">
          <mxGeometry x="460" y="343" width="7" height="7" as="geometry" />
        </mxCell>
        <mxCell id="Zsn_RkaM_dlEEFuav1fD-67" value="" style="ellipse;whiteSpace=wrap;html=1;aspect=fixed;" vertex="1" parent="1">
          <mxGeometry x="401" y="389" width="7" height="7" as="geometry" />
        </mxCell>
        <mxCell id="Zsn_RkaM_dlEEFuav1fD-68" value="" style="ellipse;whiteSpace=wrap;html=1;aspect=fixed;" vertex="1" parent="1">
          <mxGeometry x="373" y="344" width="7" height="7" as="geometry" />
        </mxCell>
        <mxCell id="Zsn_RkaM_dlEEFuav1fD-69" value="" style="ellipse;whiteSpace=wrap;html=1;aspect=fixed;" vertex="1" parent="1">
          <mxGeometry x="393" y="404" width="7" height="7" as="geometry" />
        </mxCell>
        <mxCell id="Zsn_RkaM_dlEEFuav1fD-70" value="" style="ellipse;whiteSpace=wrap;html=1;aspect=fixed;" vertex="1" parent="1">
          <mxGeometry x="340" y="233" width="7" height="7" as="geometry" />
        </mxCell>
        <mxCell id="Zsn_RkaM_dlEEFuav1fD-71" value="" style="endArrow=none;html=1;rounded=0;exitX=0;exitY=1;exitDx=0;exitDy=0;entryX=1;entryY=0;entryDx=0;entryDy=0;startArrow=none;startFill=0;endFill=0;" edge="1" parent="1" source="Zsn_RkaM_dlEEFuav1fD-76" target="Zsn_RkaM_dlEEFuav1fD-56">
          <mxGeometry width="50" height="50" relative="1" as="geometry">
            <mxPoint x="490" y="250" as="sourcePoint" />
            <mxPoint x="490" y="320" as="targetPoint" />
          </mxGeometry>
        </mxCell>
        <mxCell id="Zsn_RkaM_dlEEFuav1fD-72" value="" style="ellipse;whiteSpace=wrap;html=1;aspect=fixed;" vertex="1" parent="1">
          <mxGeometry x="357" y="240" width="7" height="7" as="geometry" />
        </mxCell>
        <mxCell id="Zsn_RkaM_dlEEFuav1fD-73" value="" style="ellipse;whiteSpace=wrap;html=1;aspect=fixed;" vertex="1" parent="1">
          <mxGeometry x="357" y="303" width="7" height="7" as="geometry" />
        </mxCell>
        <mxCell id="Zsn_RkaM_dlEEFuav1fD-74" value="" style="ellipse;whiteSpace=wrap;html=1;aspect=fixed;" vertex="1" parent="1">
          <mxGeometry x="373" y="309" width="7" height="7" as="geometry" />
        </mxCell>
        <mxCell id="Zsn_RkaM_dlEEFuav1fD-75" value="" style="ellipse;whiteSpace=wrap;html=1;aspect=fixed;" vertex="1" parent="1">
          <mxGeometry x="380" y="217" width="7" height="7" as="geometry" />
        </mxCell>
        <mxCell id="Zsn_RkaM_dlEEFuav1fD-77" value="" style="endArrow=none;html=1;rounded=0;exitX=0;exitY=1;exitDx=0;exitDy=0;entryX=1;entryY=0;entryDx=0;entryDy=0;startArrow=none;startFill=0;endFill=0;" edge="1" parent="1" source="Zsn_RkaM_dlEEFuav1fD-53" target="Zsn_RkaM_dlEEFuav1fD-76">
          <mxGeometry width="50" height="50" relative="1" as="geometry">
            <mxPoint x="466" y="234" as="sourcePoint" />
            <mxPoint x="374" y="316" as="targetPoint" />
          </mxGeometry>
        </mxCell>
        <mxCell id="Zsn_RkaM_dlEEFuav1fD-76" value="" style="ellipse;whiteSpace=wrap;html=1;aspect=fixed;" vertex="1" parent="1">
          <mxGeometry x="459" y="232" width="7" height="7" as="geometry" />
        </mxCell>
        <mxCell id="Zsn_RkaM_dlEEFuav1fD-78" value="" style="ellipse;whiteSpace=wrap;html=1;aspect=fixed;" vertex="1" parent="1">
          <mxGeometry x="477" y="240" width="7" height="7" as="geometry" />
        </mxCell>
        <mxCell id="Zsn_RkaM_dlEEFuav1fD-79" value="" style="ellipse;whiteSpace=wrap;html=1;aspect=fixed;" vertex="1" parent="1">
          <mxGeometry x="477" y="303" width="7" height="7" as="geometry" />
        </mxCell>
        <mxCell id="Zsn_RkaM_dlEEFuav1fD-81" value="" style="endArrow=none;html=1;rounded=0;exitX=0;exitY=0.5;exitDx=0;exitDy=0;entryX=1;entryY=0.5;entryDx=0;entryDy=0;startArrow=none;startFill=0;endFill=0;" edge="1" parent="1" source="Zsn_RkaM_dlEEFuav1fD-53" target="Zsn_RkaM_dlEEFuav1fD-80">
          <mxGeometry width="50" height="50" relative="1" as="geometry">
            <mxPoint x="460" y="220" as="sourcePoint" />
            <mxPoint x="380" y="220" as="targetPoint" />
          </mxGeometry>
        </mxCell>
        <mxCell id="Zsn_RkaM_dlEEFuav1fD-80" value="" style="ellipse;whiteSpace=wrap;html=1;aspect=fixed;" vertex="1" parent="1">
          <mxGeometry x="452" y="217" width="7" height="7" as="geometry" />
        </mxCell>
      </root>
    </mxGraphModel>
  </diagram>
</mxfile>
